<?xml version="1.0" encoding="utf-8"?>
<!-- Generator: Adobe Illustrator 17.0.0, SVG Export Plug-In . SVG Version: 6.00 Build 0)  -->
<svg xmlns="http://www.w3.org/2000/svg" width="124.606" height="242.474" viewBox="0 0 124.606 242.474">
  <path id="dots_pattern" data-name="dots pattern" d="M-3922.338,239.4a3.071,3.071,0,0,1,3.072-3.074,3.07,3.07,0,0,1,3.072,3.074,3.071,3.071,0,0,1-3.072,3.075A3.072,3.072,0,0,1-3922.338,239.4Zm-23.527-23.722a3.071,3.071,0,0,1,3.072-3.075,3.072,3.072,0,0,1,3.072,3.075,3.071,3.071,0,0,1-3.072,3.074A3.07,3.07,0,0,1-3945.865,215.677ZM-3922.188,200a3.072,3.072,0,0,1,3.073-3.074,3.071,3.071,0,0,1,3.072,3.074,3.088,3.088,0,0,1-3.072,3.075A3.072,3.072,0,0,1-3922.188,200Zm-47.2-8.024a3.071,3.071,0,0,1,3.072-3.075,3.071,3.071,0,0,1,3.072,3.075,3.087,3.087,0,0,1-3.072,3.074A3.071,3.071,0,0,1-3969.393,191.979Zm23.652-14.1a3.072,3.072,0,0,1,3.072-3.075,3.071,3.071,0,0,1,3.072,3.075,3.07,3.07,0,0,1-3.072,3.074A3.071,3.071,0,0,1-3945.741,177.881Zm-47.205-9.624a3.071,3.071,0,0,1,3.072-3.074,3.071,3.071,0,0,1,3.072,3.074,3.071,3.071,0,0,1-3.072,3.075A3.071,3.071,0,0,1-3992.946,168.257Zm70.882-7.624a3.072,3.072,0,0,1,3.072-3.075,3.071,3.071,0,0,1,3.072,3.075,3.087,3.087,0,0,1-3.072,3.074A3.071,3.071,0,0,1-3922.063,160.633Zm-47.229-4.1a3.071,3.071,0,0,1,3.072-3.074,3.071,3.071,0,0,1,3.072,3.074,3.072,3.072,0,0,1-3.072,3.075A3.071,3.071,0,0,1-3969.293,156.533Zm-47.18-11.974a3.072,3.072,0,0,1,3.072-3.074,3.071,3.071,0,0,1,3.072,3.074,3.072,3.072,0,0,1-3.072,3.075A3.072,3.072,0,0,1-4016.473,144.559Zm70.857-4.5a3.071,3.071,0,0,1,3.072-3.075,3.071,3.071,0,0,1,3.072,3.075,3.071,3.071,0,0,1-3.072,3.074A3.071,3.071,0,0,1-3945.616,140.06Zm-47.205-3.3a3.072,3.072,0,0,1,3.072-3.075,3.071,3.071,0,0,1,3.072,3.075,3.1,3.1,0,0,1-3.072,3.074A3.071,3.071,0,0,1-3992.821,136.76Zm70.883-15.523a3.071,3.071,0,0,1,3.071-3.075,3.071,3.071,0,0,1,3.073,3.075,3.071,3.071,0,0,1-3.073,3.074A3.07,3.07,0,0,1-3921.938,121.237Zm-47.23-.15a3.071,3.071,0,0,1,3.072-3.074,3.071,3.071,0,0,1,3.072,3.074,3.071,3.071,0,0,1-3.072,3.075A3.071,3.071,0,0,1-3969.168,121.087Zm-47.23-.175a3.071,3.071,0,0,1,3.072-3.075,3.072,3.072,0,0,1,3.072,3.075,3.071,3.071,0,0,1-3.072,3.074A3.07,3.07,0,0,1-4016.4,120.912Zm-23.6-.075a3.072,3.072,0,0,1,3.072-3.075,3.071,3.071,0,0,1,3.072,3.075,3.07,3.07,0,0,1-3.072,3.074A3.071,3.071,0,0,1-4040,120.837Zm47.28-15.6a3.07,3.07,0,0,1,3.071-3.074,3.071,3.071,0,0,1,3.073,3.074,3.087,3.087,0,0,1-3.073,3.075A3.071,3.071,0,0,1-3992.721,105.239Zm47.23-3a3.071,3.071,0,0,1,3.072-3.074,3.071,3.071,0,0,1,3.072,3.074,3.071,3.071,0,0,1-3.072,3.075A3.071,3.071,0,0,1-3945.491,102.239Zm-70.833-4.949a3.071,3.071,0,0,1,3.073-3.074,3.071,3.071,0,0,1,3.072,3.074,3.071,3.071,0,0,1-3.072,3.075A3.072,3.072,0,0,1-4016.324,97.289Zm47.28-11.674a3.071,3.071,0,0,1,3.072-3.074,3.071,3.071,0,0,1,3.072,3.074,3.071,3.071,0,0,1-3.072,3.075A3.071,3.071,0,0,1-3969.043,85.615Zm47.23-3.774a3.071,3.071,0,0,1,3.072-3.074,3.071,3.071,0,0,1,3.073,3.074,3.071,3.071,0,0,1-3.073,3.074A3.071,3.071,0,0,1-3921.813,81.841Zm-70.807-8.1a3.071,3.071,0,0,1,3.071-3.075,3.072,3.072,0,0,1,3.073,3.075,3.072,3.072,0,0,1-3.073,3.074A3.071,3.071,0,0,1-3992.621,73.742Zm47.255-9.3a3.071,3.071,0,0,1,3.072-3.074,3.071,3.071,0,0,1,3.072,3.074,3.072,3.072,0,0,1-3.072,3.075A3.071,3.071,0,0,1-3945.366,64.443Zm-23.578-14.273a3.071,3.071,0,0,1,3.072-3.075,3.071,3.071,0,0,1,3.073,3.075,3.071,3.071,0,0,1-3.073,3.074A3.071,3.071,0,0,1-3968.944,50.17Zm47.255-7.724a3.072,3.072,0,0,1,3.073-3.074,3.071,3.071,0,0,1,3.072,3.074,3.072,3.072,0,0,1-3.072,3.075A3.072,3.072,0,0,1-3921.689,42.445Zm-23.552-15.823a3.071,3.071,0,0,1,3.072-3.074,3.071,3.071,0,0,1,3.072,3.074,3.071,3.071,0,0,1-3.072,3.075A3.072,3.072,0,0,1-3945.241,26.622Zm23.7-23.547A3.071,3.071,0,0,1-3918.467,0a3.071,3.071,0,0,1,3.072,3.075,3.087,3.087,0,0,1-3.072,3.074A3.071,3.071,0,0,1-3921.539,3.075Z" transform="translate(4040.001)" fill="#fff" opacity="0.4"/>
</svg>