<?xml version="1.0" encoding="UTF-8" standalone="no"?>
<!DOCTYPE svg PUBLIC "-//W3C//DTD SVG 1.1//EN" "http://www.w3.org/Graphics/SVG/1.1/DTD/svg11.dtd">
<svg version="1.1" xmlns="http://www.w3.org/2000/svg" xmlns:xlink="http://www.w3.org/1999/xlink" preserveAspectRatio="xMidYMid meet" viewBox="0 0 640 640" width="640" height="640"><defs><path d="M203.96 182.73L356.81 182.73L356.81 457.27L203.96 457.27L203.96 182.73Z" id="a7kJYzW3Up"></path><path d="M223.41 322.12C223.41 325.93 220.32 329.02 216.51 329.02C212.71 329.02 209.61 325.93 209.61 322.12C209.61 318.32 212.71 315.22 216.51 315.22C220.32 315.22 223.41 318.32 223.41 322.12Z" id="a6w2WSwMjE"></path><path d="M256.06 322.12C256.06 325.93 252.96 329.02 249.16 329.02C245.35 329.02 242.26 325.93 242.26 322.12C242.26 318.32 245.35 315.22 249.16 315.22C252.96 315.22 256.06 318.32 256.06 322.12Z" id="d2YkQe94L6"></path><path d="M287.28 322.12C287.28 325.93 284.19 329.02 280.39 329.02C276.58 329.02 273.49 325.93 273.49 322.12C273.49 318.32 276.58 315.22 280.39 315.22C284.19 315.22 287.28 318.32 287.28 322.12Z" id="c2cyjDHif7"></path><path d="M316.9 323.1C316.9 326.91 313.81 330 310 330C306.19 330 303.1 326.91 303.1 323.1C303.1 319.29 306.19 316.2 310 316.2C313.81 316.2 316.9 319.29 316.9 323.1Z" id="b143j3cWeO"></path><path d="M351.58 323.1C351.58 326.91 348.49 330 344.68 330C340.87 330 337.78 326.91 337.78 323.1C337.78 319.29 340.87 316.2 344.68 316.2C348.49 316.2 351.58 319.29 351.58 323.1Z" id="cbZamnbzO"></path><path d="M287.28 292.24C287.28 296.04 284.19 299.14 280.39 299.14C276.58 299.14 273.49 296.04 273.49 292.24C273.49 288.43 276.58 285.34 280.39 285.34C284.19 285.34 287.28 288.43 287.28 292.24Z" id="bjpnA1Cr2"></path><path d="M316.9 386.61C316.9 390.42 313.81 393.51 310 393.51C306.19 393.51 303.1 390.42 303.1 386.61C303.1 382.8 306.19 379.71 310 379.71C313.81 379.71 316.9 382.8 316.9 386.61Z" id="a2qiNGBJB"></path><path d="M316.9 415.53C316.9 419.33 313.81 422.42 310 422.42C306.19 422.42 303.1 419.33 303.1 415.53C303.1 411.72 306.19 408.63 310 408.63C313.81 408.63 316.9 411.72 316.9 415.53Z" id="adimHhaIc"></path><path d="M351.58 386.61C351.58 390.42 348.49 393.51 344.68 393.51C340.87 393.51 337.78 390.42 337.78 386.61C337.78 382.8 340.87 379.71 344.68 379.71C348.49 379.71 351.58 382.8 351.58 386.61Z" id="a6marmQ6m"></path><path d="M351.58 352.38C351.58 356.19 348.49 359.28 344.68 359.28C340.87 359.28 337.78 356.19 337.78 352.38C337.78 348.58 340.87 345.48 344.68 345.48C348.49 345.48 351.58 348.58 351.58 352.38Z" id="babLrRVp4"></path><path d="M316.9 352.38C316.9 356.19 313.81 359.28 310 359.28C306.19 359.28 303.1 356.19 303.1 352.38C303.1 348.58 306.19 345.48 310 345.48C313.81 345.48 316.9 348.58 316.9 352.38Z" id="dKkkCq26W"></path><path d="M273.49 352.38C273.49 356.19 276.58 359.28 280.39 359.28C284.19 359.28 287.28 356.19 287.28 352.38C287.28 348.58 284.19 345.48 280.39 345.48C276.58 345.48 273.49 348.58 273.49 352.38Z" id="byshEEejP"></path><path d="M242.26 352.38C242.26 356.19 245.35 359.28 249.16 359.28C252.96 359.28 256.06 356.19 256.06 352.38C256.06 348.58 252.96 345.48 249.16 345.48C245.35 345.48 242.26 348.58 242.26 352.38Z" id="a4V8v4xQlG"></path><path d="M316.9 292.24C316.9 296.04 313.81 299.14 310 299.14C306.19 299.14 303.1 296.04 303.1 292.24C303.1 288.43 306.19 285.34 310 285.34C313.81 285.34 316.9 288.43 316.9 292.24Z" id="do26P4lT5"></path><path d="M316.9 259.33C316.9 263.14 313.81 266.23 310 266.23C306.19 266.23 303.1 263.14 303.1 259.33C303.1 255.53 306.19 252.43 310 252.43C313.81 252.43 316.9 255.53 316.9 259.33Z" id="h48dUvbMPF"></path><path d="M351.58 292.24C351.58 296.04 348.49 299.14 344.68 299.14C340.87 299.14 337.78 296.04 337.78 292.24C337.78 288.43 340.87 285.34 344.68 285.34C348.49 285.34 351.58 288.43 351.58 292.24Z" id="esxPEv1b"></path><path d="M351.58 259.33C351.58 263.14 348.49 266.23 344.68 266.23C340.87 266.23 337.78 263.14 337.78 259.33C337.78 255.53 340.87 252.43 344.68 252.43C348.49 252.43 351.58 255.53 351.58 259.33Z" id="aypvisMLV"></path><path d="M351.58 230.6C351.58 234.41 348.49 237.5 344.68 237.5C340.87 237.5 337.78 234.41 337.78 230.6C337.78 226.8 340.87 223.7 344.68 223.7C348.49 223.7 351.58 226.8 351.58 230.6Z" id="bla5nosqJ"></path><path d="M256.06 292.24C256.06 296.04 252.96 299.14 249.16 299.14C245.35 299.14 242.26 296.04 242.26 292.24C242.26 288.43 245.35 285.34 249.16 285.34C252.96 285.34 256.06 288.43 256.06 292.24Z" id="b5MUW9JgMt"></path><path d="M351.58 418.45C351.58 422.26 348.49 425.35 344.68 425.35C340.87 425.35 337.78 422.26 337.78 418.45C337.78 414.64 340.87 411.55 344.68 411.55C348.49 411.55 351.58 414.64 351.58 418.45Z" id="c4tf8ZyZsZ"></path><path d="M351.58 449.31C351.58 453.12 348.49 456.21 344.68 456.21C340.87 456.21 337.78 453.12 337.78 449.31C337.78 445.51 340.87 442.41 344.68 442.41C348.49 442.41 351.58 445.51 351.58 449.31Z" id="f39READcFL"></path><path d="M287.28 386.61C287.28 390.42 284.19 393.51 280.39 393.51C276.58 393.51 273.49 390.42 273.49 386.61C273.49 382.8 276.58 379.71 280.39 379.71C284.19 379.71 287.28 382.8 287.28 386.61Z" id="bey59zZCp"></path><path d="M351.58 198.86C351.58 202.66 348.49 205.75 344.68 205.75C340.87 205.75 337.78 202.66 337.78 198.86C337.78 195.05 340.87 191.96 344.68 191.96C348.49 191.96 351.58 195.05 351.58 198.86Z" id="aeGBcy2n7"></path><path d="M287.28 261.93C287.28 265.73 284.19 268.82 280.39 268.82C276.58 268.82 273.49 265.73 273.49 261.93C273.49 258.12 276.58 255.03 280.39 255.03C284.19 255.03 287.28 258.12 287.28 261.93Z" id="c1U2BuEJl0"></path><path d="M316.9 230.6C316.9 234.41 313.81 237.5 310 237.5C306.19 237.5 303.1 234.41 303.1 230.6C303.1 226.8 306.19 223.7 310 223.7C313.81 223.7 316.9 226.8 316.9 230.6Z" id="e1PfdWRZ5N"></path></defs><g><g><g></g><g><use xlink:href="#a6w2WSwMjE" opacity="1" fill="#a2ceb0" fill-opacity="1"></use></g><g><use xlink:href="#d2YkQe94L6" opacity="1" fill="#a2ceb0" fill-opacity="1"></use></g><g><use xlink:href="#c2cyjDHif7" opacity="1" fill="#a2ceb0" fill-opacity="1"></use></g><g><use xlink:href="#b143j3cWeO" opacity="1" fill="#a2ceb0" fill-opacity="1"></use></g><g><use xlink:href="#cbZamnbzO" opacity="1" fill="#a2ceb0" fill-opacity="1"></use></g><g><use xlink:href="#bjpnA1Cr2" opacity="1" fill="#a2ceb0" fill-opacity="1"></use></g><g><use xlink:href="#a2qiNGBJB" opacity="1" fill="#a2ceb0" fill-opacity="1"></use></g><g><use xlink:href="#adimHhaIc" opacity="1" fill="#a2ceb0" fill-opacity="1"></use></g><g><use xlink:href="#a6marmQ6m" opacity="1" fill="#a2ceb0" fill-opacity="1"></use></g><g><use xlink:href="#babLrRVp4" opacity="1" fill="#a2ceb0" fill-opacity="1"></use></g><g><use xlink:href="#dKkkCq26W" opacity="1" fill="#a2ceb0" fill-opacity="1"></use></g><g><use xlink:href="#byshEEejP" opacity="1" fill="#a2ceb0" fill-opacity="1"></use></g><g><use xlink:href="#a4V8v4xQlG" opacity="1" fill="#a2ceb0" fill-opacity="1"></use></g><g><use xlink:href="#do26P4lT5" opacity="1" fill="#a2ceb0" fill-opacity="1"></use></g><g><use xlink:href="#h48dUvbMPF" opacity="1" fill="#a2ceb0" fill-opacity="1"></use></g><g><use xlink:href="#esxPEv1b" opacity="1" fill="#a2ceb0" fill-opacity="1"></use></g><g><use xlink:href="#aypvisMLV" opacity="1" fill="#a2ceb0" fill-opacity="1"></use></g><g><use xlink:href="#bla5nosqJ" opacity="1" fill="#a2ceb0" fill-opacity="1"></use></g><g><use xlink:href="#b5MUW9JgMt" opacity="1" fill="#a2ceb0" fill-opacity="1"></use></g><g><use xlink:href="#c4tf8ZyZsZ" opacity="1" fill="#a2ceb0" fill-opacity="1"></use></g><g><use xlink:href="#f39READcFL" opacity="1" fill="#a2ceb0" fill-opacity="1"></use></g><g><use xlink:href="#bey59zZCp" opacity="1" fill="#a2ceb0" fill-opacity="1"></use></g><g><use xlink:href="#aeGBcy2n7" opacity="1" fill="#a2ceb0" fill-opacity="1"></use></g><g><use xlink:href="#c1U2BuEJl0" opacity="1" fill="#a2ceb0" fill-opacity="1"></use></g><g><use xlink:href="#e1PfdWRZ5N" opacity="1" fill="#a2ceb0" fill-opacity="1"></use></g></g></g></svg>